<svg width="24" height="24" viewBox="0 0 24 24" fill="none" xmlns="http://www.w3.org/2000/svg">
<g id="link-alt-1">
<path id="Icon" d="M13.1037 14.2296L13.4164 13.9168C14.6256 12.7077 14.4958 10.6175 13.1267 9.24836L12.7725 8.8942C11.2077 7.32942 8.81897 7.18116 7.43709 8.56304L3.68391 12.3162C2.30202 13.6981 2.45029 16.0868 4.01507 17.6516L4.36923 18.0058C5.73841 19.375 7.82856 19.5047 9.03771 18.2956L9.35048 17.9828M14.6491 7.01761L14.9619 6.70485C16.171 5.4957 18.2611 5.62543 19.6303 6.99461L19.9845 7.34878C21.5493 8.91356 21.6975 11.3023 20.3157 12.6842L16.5625 16.4374C15.1806 17.8192 12.7918 17.671 11.2271 16.1062L10.8729 15.752C9.50372 14.3829 9.37399 12.2927 10.5831 11.0836L10.8959 10.7708" stroke="white" stroke-width="2" stroke-linecap="round" stroke-linejoin="round"/>
</g>
</svg>
