<svg width="1280" height="1261" viewBox="0 0 1280 1261" fill="none" xmlns="http://www.w3.org/2000/svg">
<g clip-path="url(#clip0_360_2683)">
<rect width="1280" height="1261" rx="30" fill="#0F0F0F"/>
<path d="M1405.12 168.482C1399.57 193.817 1389.08 217.81 1374.26 239.092C1359.43 260.373 1340.56 278.526 1318.72 292.515C1296.88 306.503 1272.5 316.052 1246.97 320.618C1221.44 325.183 1195.26 324.675 1169.92 319.123C1144.59 313.571 1120.59 303.083 1099.31 288.258C1078.03 273.433 1059.88 254.561 1045.89 232.721C1031.9 210.88 1022.35 186.498 1017.79 160.967C1013.22 135.436 1013.73 109.256 1019.28 83.9212L1077.16 96.6054C1073.27 114.34 1072.91 132.666 1076.11 150.538C1079.31 168.409 1085.99 185.477 1095.78 200.765C1105.57 216.053 1118.28 229.263 1133.18 239.641C1148.08 250.018 1164.87 257.36 1182.61 261.247C1200.34 265.133 1218.67 265.489 1236.54 262.293C1254.41 259.097 1271.48 252.412 1286.77 242.621C1302.05 232.829 1315.26 220.122 1325.64 205.225C1336.02 190.328 1343.36 173.532 1347.25 155.798L1405.12 168.482Z" fill="#121212"/>
<g filter="url(#filter0_f_360_2683)">
<circle cx="1240" cy="1265" r="164" fill="#335065"/>
</g>
<path d="M212.344 1308C212.344 1401.34 136.68 1477 43.3438 1477C-49.9924 1477 -125.656 1401.34 -125.656 1308C-125.656 1214.66 -49.9924 1139 43.3438 1139C136.68 1139 212.344 1214.66 212.344 1308ZM-58.0563 1308C-58.0563 1364 -12.6579 1409.4 43.3438 1409.4C99.3454 1409.4 144.744 1364 144.744 1308C144.744 1252 99.3454 1206.6 43.3438 1206.6C-12.6579 1206.6 -58.0563 1252 -58.0563 1308Z" fill="#121212"/>
<path d="M324.195 1238.35C362.575 1381.59 277.573 1528.82 134.337 1567.2C-8.89874 1605.57 -156.127 1520.57 -194.507 1377.34C-232.887 1234.1 -147.885 1086.87 -4.64892 1048.49C138.587 1010.11 285.815 1095.12 324.195 1238.35ZM-116.702 1356.49C-89.8358 1456.75 13.2241 1516.26 113.489 1489.39C213.754 1462.52 273.256 1359.46 246.39 1259.2C219.524 1158.93 116.464 1099.43 16.199 1126.3C-84.066 1153.16 -143.568 1256.22 -116.702 1356.49Z" fill="#121212"/>
</g>
<defs>
<filter id="filter0_f_360_2683" x="716" y="741" width="1048" height="1048" filterUnits="userSpaceOnUse" color-interpolation-filters="sRGB">
<feFlood flood-opacity="0" result="BackgroundImageFix"/>
<feBlend mode="normal" in="SourceGraphic" in2="BackgroundImageFix" result="shape"/>
<feGaussianBlur stdDeviation="180" result="effect1_foregroundBlur_360_2683"/>
</filter>
<clipPath id="clip0_360_2683">
<rect width="1280" height="1261" rx="30" fill="white"/>
</clipPath>
</defs>
</svg>
