<svg width="134" height="395" viewBox="0 0 134 395" fill="none" xmlns="http://www.w3.org/2000/svg">
<path d="M298.221 197.143C298.221 253.11 252.85 298.481 196.882 298.481C140.914 298.481 95.543 253.11 95.543 197.143C95.543 141.175 140.914 95.8037 196.882 95.8037C252.85 95.8037 298.221 141.175 298.221 197.143ZM136.078 197.143C136.078 230.723 163.301 257.946 196.882 257.946C230.462 257.946 257.685 230.723 257.685 197.143C257.685 163.562 230.462 136.339 196.882 136.339C163.301 136.339 136.078 163.562 136.078 197.143Z" fill="#0C0C0C"/>
<path d="M352.704 155.516C375.718 241.406 324.747 329.69 238.858 352.704C152.968 375.718 64.6846 324.747 41.6706 238.858C18.6566 152.968 69.6272 64.6843 155.517 41.6702C241.406 18.6562 329.69 69.6269 352.704 155.516ZM88.3256 226.356C104.435 286.479 166.234 322.159 226.357 306.049C286.479 289.939 322.159 228.14 306.049 168.018C289.939 107.895 228.141 72.2154 168.018 88.3253C107.895 104.435 72.2158 166.234 88.3256 226.356Z" fill="#0C0C0C"/>
</svg>
